M48
METRIC,LZ,000.000
;FILE_FORMAT=3:3
;TYPE=PLATED
;Layer: PTH_Through
;EasyEDA v6.5.51, 2025-10-02 22:01:21
;208e135f75f84b069e33606ea1abe5ef,5c351882480b49209f9ebacf817cb454,10
;Gerber Generator version 0.2
;Holesize 1 = 0.305 mm
T01C0.305
;Holesize 2 = 0.850 mm
T02C0.850
;Holesize 3 = 1.000 mm
T03C1.000
;Holesize 4 = 1.083 mm
T04C1.083
;Holesize 5 = 1.101 mm
T05C1.101
;Holesize 6 = 1.200 mm
T06C1.200
%
G05
G90
T01
X013208Y060600
X013208Y064306
X014066Y070501
X014158Y072191
X015756Y055373
X014086Y076248
X013307Y051418
X022710Y031433
X019482Y053148
X026289Y065238
T02
X031789Y026035
X031789Y028575
X031789Y031115
X031789Y033655
X031789Y036195
X031789Y038735
X031789Y041275
X031789Y043815
X031789Y046355
X031789Y048895
X020789Y026035
X020789Y028575
X020789Y031115
X020789Y033655
X020789Y036195
X020789Y038735
X020789Y041275
X020789Y043815
X020789Y046355
X020789Y048895
T03
X011684Y026035G85X011684Y026035
X014224Y026035G85X014224Y026035
X011684Y028575G85X011684Y028575
X014224Y028575G85X014224Y028575
X011684Y031115G85X011684Y031115
X014224Y031115G85X014224Y031115
X011684Y033655G85X011684Y033655
X014224Y033655G85X014224Y033655
X011684Y036195G85X011684Y036195
X014224Y036195G85X014224Y036195
X011684Y038735G85X011684Y038735
X014224Y038735G85X014224Y038735
X011684Y041275G85X011684Y041275
X014224Y041275G85X014224Y041275
X011684Y043815G85X011684Y043815
X014224Y043815G85X014224Y043815
X011684Y046355G85X011684Y046355
X014224Y046355G85X014224Y046355
X011684Y048895G85X011684Y048895
X014224Y048895G85X014224Y048895
X039624Y026035G85X039624Y026035
X037084Y026035G85X037084Y026035
X037084Y028575G85X037084Y028575
X037084Y031115G85X037084Y031115
X037084Y033655G85X037084Y033655
X037084Y036195G85X037084Y036195
X037084Y038735G85X037084Y038735
X037084Y041275G85X037084Y041275
X037084Y043815G85X037084Y043815
X037084Y046355G85X037084Y046355
X037084Y048895G85X037084Y048895
X039624Y048895G85X039624Y048895
X039624Y046355G85X039624Y046355
X039624Y043815G85X039624Y043815
X039624Y041275G85X039624Y041275
X039624Y038735G85X039624Y038735
X039624Y036195G85X039624Y036195
X039624Y033655G85X039624Y033655
X039624Y031115G85X039624Y031115
X039624Y028575G85X039624Y028575
T04
X022686Y074950
X022559Y063647
T05
X041656Y070739
X041656Y073279
X041656Y075819
T06
X041656Y062357
X041656Y064897
X022686Y077450
X025186Y074950
X025186Y077450
X027686Y074950
X027686Y077450
X030186Y074950
X030186Y077450
X032686Y074950
X032686Y077450
X022559Y066147
X025059Y063647
X025059Y066147
X027559Y063647
X027559Y066147
X030059Y063647
X030059Y066147
X032559Y063647
X032559Y066147
M30
