G04 Layer: TopLayer*
G04 EasyEDA v6.5.51, 2025-10-02 22:01:21*
G04 208e135f75f84b069e33606ea1abe5ef,5c351882480b49209f9ebacf817cb454,10*
G04 Gerber Generator version 0.2*
G04 Scale: 100 percent, Rotated: No, Reflected: No *
G04 Dimensions in millimeters *
G04 leading zeros omitted , absolute positions ,4 integer and 5 decimal *
%FSLAX45Y45*%
%MOMM*%

%AMMACRO1*21,1,$1,$2,0,0,$3*%
%ADD10C,0.2540*%
%ADD11R,0.8000X1.0000*%
%ADD12MACRO1,1.701X1.2075X90.0000*%
%ADD13C,1.9000*%
%ADD14R,1.7000X1.7000*%
%ADD15C,1.7000*%
%ADD16C,1.5240*%
%ADD17C,0.0164*%
%ADD18R,2.0000X2.0000*%
%ADD19C,2.0000*%
%ADD20R,1.7000X1.8000*%
%ADD21C,0.6096*%

%LPD*%
D10*
X1225806Y6757085D02*
G01*
X1225806Y6185687D01*
X1225806Y6846087D02*
G01*
X1225806Y6757085D01*
X2123874Y6364706D02*
G01*
X2142949Y6364706D01*
X1225806Y6846087D02*
G01*
X1642493Y6846087D01*
X2123874Y6364706D01*
X2123874Y6364706D02*
G01*
X2123874Y5242940D01*
X2230224Y5136591D01*
X2230224Y3770833D01*
X2078890Y3619500D01*
X1225806Y7315885D02*
G01*
X1225806Y6846087D01*
X2255903Y6364706D02*
G01*
X2142949Y6364706D01*
X1225806Y7874685D02*
G01*
X1225806Y7315885D01*
X2312393Y6364706D02*
G01*
X2255903Y6364706D01*
X2312393Y6364706D02*
G01*
X2368882Y6364706D01*
X2268603Y7495006D02*
G01*
X2268603Y7377048D01*
X2368882Y6364706D02*
G01*
X2380922Y6376746D01*
X2380922Y7264730D01*
X2268603Y7377048D01*
X1320802Y6059957D02*
G01*
X1320802Y5955690D01*
X3255901Y6614693D02*
G01*
X3143608Y6726986D01*
X3143608Y7620000D01*
X3268601Y7744993D01*
X1415798Y6185687D02*
G01*
X1483768Y6185687D01*
X2078890Y4127500D02*
G01*
X2187577Y4236186D01*
X2187577Y4991811D01*
X1634136Y5545251D01*
X1634136Y6035319D01*
X1483768Y6185687D01*
X1320802Y6449136D02*
G01*
X1320802Y6430645D01*
X1320802Y6527088D02*
G01*
X1320802Y6449136D01*
X3255901Y6364706D02*
G01*
X3376678Y6485483D01*
X3376678Y7386929D01*
X3268601Y7495006D01*
X1415798Y6757085D02*
G01*
X1415798Y6389954D01*
X1347726Y6321882D01*
X1347726Y6170498D01*
X1243002Y6065773D01*
X1243002Y5323916D01*
X2078890Y4488027D01*
X2078890Y4381500D01*
X1406603Y7050125D02*
G01*
X1388772Y7067956D01*
X1388772Y7085888D01*
X1320802Y7085888D02*
G01*
X1388772Y7085888D01*
X3005914Y6614693D02*
G01*
X2893621Y6726986D01*
X2893621Y7620000D01*
X3018614Y7744993D01*
X1415798Y7237933D02*
G01*
X1415798Y7219061D01*
X1415798Y7315885D02*
G01*
X1415798Y7237933D01*
X2078890Y4635500D02*
G01*
X1575589Y5138801D01*
X1575589Y5537276D01*
X1408635Y7624826D02*
G01*
X1388772Y7644688D01*
X1320802Y7644688D02*
G01*
X1388772Y7644688D01*
X3005914Y6364706D02*
G01*
X3130908Y6489700D01*
X3130908Y6682028D01*
X3018614Y6794322D01*
X3018614Y7495006D01*
X1330683Y5141823D02*
G01*
X1146964Y5325541D01*
X1146964Y7934705D01*
X1165049Y7952790D01*
X1303708Y7952790D01*
X1347853Y7908645D01*
X1347853Y7874685D01*
X1415798Y7874685D02*
G01*
X1347853Y7874685D01*
X2217981Y5448300D02*
G01*
X2217981Y5335295D01*
X2217981Y5335295D02*
G01*
X2271016Y5282260D01*
X2271016Y3143250D01*
X1922223Y5335295D02*
G01*
X1927710Y5335295D01*
X1948207Y5314797D01*
X1922223Y5448300D02*
G01*
X1922223Y5335295D01*
X2979981Y5448300D02*
G01*
X3068322Y5448300D01*
X3708402Y4127500D02*
G01*
X3831490Y4250588D01*
X3831490Y4448682D01*
X3771673Y4508500D01*
X3641143Y4508500D01*
X3364892Y4784750D01*
X3364892Y5151729D01*
X3068322Y5448300D01*
X3178863Y2857500D02*
G01*
X2684223Y3352139D01*
X2684223Y5448300D01*
X4165602Y6489700D02*
G01*
X3962402Y6286500D01*
X3962402Y4889500D01*
X2255903Y6614693D02*
G01*
X2151611Y6718985D01*
X2151611Y7628001D01*
X2268603Y7744993D01*
X3178863Y4889500D02*
G01*
X3577490Y4490872D01*
X3577490Y3750411D01*
X3708402Y3619500D01*
X4165602Y7073900D02*
G01*
X4278581Y7073900D01*
X4165602Y6235700D02*
G01*
X4297555Y6367653D01*
X4297555Y7054926D01*
X4278581Y7073900D01*
X2505915Y6614693D02*
G01*
X2505915Y6564045D01*
X2618996Y6450964D01*
X2618996Y6269431D01*
X2595780Y6246215D01*
X2595780Y3120389D01*
X2078890Y2603500D01*
X2505915Y6614693D02*
G01*
X2505915Y7252233D01*
X2397229Y7360920D01*
X2397229Y7623606D01*
X2518615Y7744993D01*
X2628902Y6523837D02*
G01*
X2628902Y6684035D01*
X2589176Y6723761D01*
X2589176Y7424445D01*
X2518615Y7495006D01*
X2078890Y2857500D02*
G01*
X2124991Y2857500D01*
X2505915Y3238423D01*
X2505915Y6364706D01*
X2755902Y6364706D02*
G01*
X2880921Y6489725D01*
X2880921Y6682003D01*
X2768602Y6794322D01*
X2768602Y7495006D01*
X2755902Y6614693D02*
G01*
X2643609Y6726986D01*
X2643609Y7620000D01*
X2768602Y7744993D01*
D11*
G01*
X1225804Y6185687D03*
G01*
X1320800Y5955690D03*
G01*
X1415795Y6185687D03*
G01*
X1225804Y6757111D03*
G01*
X1320800Y6527088D03*
G01*
X1415795Y6757085D03*
G01*
X1225804Y7315911D03*
G01*
X1320800Y7085888D03*
G01*
X1415795Y7315885D03*
G01*
X1225804Y7874711D03*
G01*
X1320800Y7644688D03*
G01*
X1415795Y7874685D03*
D12*
G01*
X2217976Y5448300D03*
G01*
X1922223Y5448300D03*
G01*
X2979976Y5448300D03*
G01*
X2684223Y5448300D03*
D13*
G01*
X1168400Y2603500D03*
G01*
X1422400Y2603500D03*
G01*
X1168400Y2857500D03*
G01*
X1422400Y2857500D03*
G01*
X1168400Y3111500D03*
G01*
X1422400Y3111500D03*
G01*
X1168400Y3365500D03*
G01*
X1422400Y3365500D03*
G01*
X1168400Y3619500D03*
G01*
X1422400Y3619500D03*
G01*
X1168400Y3873500D03*
G01*
X1422400Y3873500D03*
G01*
X1168400Y4127500D03*
G01*
X1422400Y4127500D03*
G01*
X1168400Y4381500D03*
G01*
X1422400Y4381500D03*
G01*
X1168400Y4635500D03*
G01*
X1422400Y4635500D03*
G01*
X1168400Y4889500D03*
G01*
X1422400Y4889500D03*
G01*
X3962400Y2603500D03*
G01*
X3708400Y2603500D03*
G01*
X3708400Y2857500D03*
G01*
X3708400Y3111500D03*
G01*
X3708400Y3365500D03*
G01*
X3708400Y3619500D03*
G01*
X3708400Y3873500D03*
G01*
X3708400Y4127500D03*
G01*
X3708400Y4381500D03*
G01*
X3708400Y4635500D03*
G01*
X3708400Y4889500D03*
G01*
X3962400Y4889500D03*
G01*
X3962400Y4635500D03*
G01*
X3962400Y4381500D03*
G01*
X3962400Y4127500D03*
G01*
X3962400Y3873500D03*
G01*
X3962400Y3619500D03*
G01*
X3962400Y3365500D03*
G01*
X3962400Y3111500D03*
G01*
X3962400Y2857500D03*
D14*
G01*
X4165600Y7073900D03*
D15*
G01*
X4165600Y7327900D03*
G01*
X4165600Y7581900D03*
D16*
G01*
X3178911Y2603500D03*
G01*
X3178886Y2857500D03*
G01*
X3178886Y3111500D03*
G01*
X3178886Y3365500D03*
G01*
X3178886Y3619500D03*
G01*
X3178886Y3873500D03*
G01*
X3178886Y4127500D03*
G01*
X3178886Y4381500D03*
G01*
X3178886Y4635500D03*
G01*
X3178886Y4889500D03*
G01*
X2078888Y2603500D03*
G01*
X2078888Y2857500D03*
G01*
X2078888Y3111500D03*
G01*
X2078888Y3365500D03*
G01*
X2078888Y3619500D03*
G01*
X2078888Y3873500D03*
G01*
X2078888Y4127500D03*
G01*
X2078888Y4381500D03*
G01*
X2078888Y4635500D03*
G01*
X2078888Y4889500D03*
D18*
G01*
X4165600Y6235700D03*
D19*
G01*
X4165600Y6489700D03*
D15*
G01*
X2268600Y7744993D03*
G01*
X2518613Y7495006D03*
G01*
X2518613Y7744993D03*
G01*
X2768600Y7495006D03*
G01*
X2768600Y7744993D03*
G01*
X3018612Y7495006D03*
G01*
X3018612Y7744993D03*
G01*
X3268599Y7495006D03*
G01*
X3268599Y7744993D03*
D20*
G01*
X2268600Y7495006D03*
D15*
G01*
X2255900Y6614693D03*
G01*
X2505913Y6364706D03*
G01*
X2505913Y6614693D03*
G01*
X2755900Y6364706D03*
G01*
X2755900Y6614693D03*
G01*
X3005912Y6364706D03*
G01*
X3005912Y6614693D03*
G01*
X3255899Y6364706D03*
G01*
X3255899Y6614693D03*
D20*
G01*
X2255900Y6364706D03*
D21*
G01*
X1320800Y6059957D03*
G01*
X1320800Y6430645D03*
G01*
X1406601Y7050125D03*
G01*
X1415795Y7219061D03*
G01*
X1575587Y5537276D03*
G01*
X1408633Y7624826D03*
G01*
X1330680Y5141823D03*
G01*
X2271013Y3143250D03*
G01*
X1948205Y5314797D03*
G01*
X2628900Y6523837D03*
M02*
